<svg width="32" height="32" viewBox="0 0 32 32" fill="none" xmlns="http://www.w3.org/2000/svg">
<path d="M21.2002 4.90039C25.1056 4.90039 28.2456 7.9009 28.5469 11.7812L28.5674 12.1602V12.4004C28.5673 14.5632 27.7282 16.4503 26.3252 17.7363L26.0332 18.0039V18.0986C26.0192 18.1104 26.0048 18.1225 25.9902 18.1348C25.7823 18.3101 25.5002 18.5534 25.1641 18.8457C24.4906 19.4313 23.5886 20.2253 22.6055 21.0918C20.6413 22.8229 18.3533 24.8449 16.8906 26.1084C16.4244 26.4969 15.7084 26.4969 15.2422 26.1084C13.7769 24.8428 11.453 22.817 9.47559 21.0889C8.48435 20.2226 7.58088 19.4314 6.91699 18.8486C6.5851 18.5573 6.31359 18.3184 6.12109 18.1484C6.11414 18.1423 6.10726 18.1358 6.10059 18.1299V18.0273L5.83691 17.7637C4.3963 16.3231 3.56749 14.4151 3.56738 12.4004V12.1426C3.69556 8.23997 7.02307 5.03324 10.9336 5.0332C11.551 5.0332 12.3387 5.24524 13.1074 5.65918C13.8495 6.05883 14.5078 6.61335 14.9443 7.24316C15.4238 8.26862 16.9011 8.25157 17.3467 7.19141C17.7137 6.53143 18.356 5.95411 19.1055 5.53613C19.8735 5.10782 20.6564 4.90042 21.2002 4.90039Z" stroke="#6B7280" stroke-width="1.8"/>
</svg>
