<svg width="81" height="27" viewBox="0 0 81 27" fill="none" xmlns="http://www.w3.org/2000/svg">
<path d="M17.5757 9.06064H19.9999V11.8889H17.5757V17.6263H13.9394V14.0707C11.3535 14.596 8.78785 14.8788 5.05049 14.8788H0.808078V12.1111H2.42424V6.37378H1.21212V3.64651H12.3636V6.37378H11.1515V11.8081C12.1414 11.6869 13.0707 11.5455 13.9394 11.3839V3.44449H17.5757V9.06064ZM2.80807 22.4343V16.4344H6.52523V19.6263H17.9797V22.4343H2.80807ZM6.06059 12.1111C6.56564 12.0909 7.05048 12.0909 7.51513 12.0707V6.37378H6.06059V12.1111ZM40.2019 10.4748V13.303H37.7777V22.4343H34.1413V19.2626C31.5555 20.0101 28.9898 20.4343 25.2524 20.4343H21.6161V4.05055H31.9595V6.77781H25.2524V17.6667C28.9494 17.6667 31.5757 17.303 34.1413 16.5758V3.44449H37.7777V10.4748H40.2019ZM60.4039 10.4748V13.303H57.9796V22.4343H54.3433V3.44449H57.9796V10.4748H60.4039ZM41.8181 20.4343V4.05055H52.3837V20.4343H41.8181ZM45.4544 17.6667H48.7877V6.81822H45.4544V17.6667ZM75.8584 3.44449H79.3937V14.394H75.8584V3.44449ZM60.8079 12.2323C63.1715 11.7475 64.9493 11 65.9392 10.0505L62.02 10.293V7.6667H66.7877V6.37378H62.4241V3.64651H70.323V7.28286H71.4745V3.5455H74.9089V14.394H71.4745V10.1111H69.7978C68.7271 12.1919 66.0402 13.9091 61.9594 14.9394L60.8079 12.2323ZM63.0099 19.5455C67.9998 19.3636 69.4543 18.3333 69.4543 16.5758V15.0404H73.0907V16.899C73.0907 17.3838 73.0301 17.8485 72.9089 18.2727C75.2523 18.4343 77.5755 18.7576 79.3937 19.1818L78.424 22.4343C76.3432 21.7071 73.4341 21 71.0907 20.6162C69.4139 21.7475 66.7271 22.2929 63.3938 22.4343L63.0099 19.5455Z" fill="#3692FF"/>
</svg>
