<svg width="589" height="444" viewBox="0 0 589 444" fill="none" xmlns="http://www.w3.org/2000/svg">
<g clip-path="url(#clip0_47686_950)">
<rect x="0.5" width="588" height="444" rx="12" fill="#F3F4F6"/>
<g opacity="0.5" clip-path="url(#clip1_47686_950)">
<path d="M-43.1321 328.56C-43.1321 323.79 -39.2652 319.923 -34.4951 319.923H82.9849C87.755 319.923 91.6219 323.79 91.6219 328.56V398.571C91.6219 401.751 89.044 404.329 85.8639 404.329H-37.3741C-40.5541 404.329 -43.1321 401.751 -43.1321 398.571V328.56Z" fill="#0C7AFF"/>
<path fill-rule="evenodd" clip-rule="evenodd" d="M-121.863 305C-126.633 305 -130.5 308.867 -130.5 313.637V392.242C-130.5 392.253 -130.5 392.264 -130.5 392.275V487.42C-130.5 490.6 -127.922 493.178 -124.742 493.178H96.2297C99.4098 493.178 101.988 490.6 101.988 487.42V341.97C101.988 338.79 99.4098 336.212 96.2297 336.212H-36.5V313.637C-36.5 308.867 -40.3669 305 -45.1369 305H-121.863Z" fill="#3692FF"/>
</g>
<g opacity="0.5" clip-path="url(#clip2_47686_950)">
<path d="M573.868 328.56C573.868 323.79 577.735 319.923 582.505 319.923H699.985C704.755 319.923 708.622 323.79 708.622 328.56V398.571C708.622 401.751 706.044 404.329 702.864 404.329H579.626C576.446 404.329 573.868 401.751 573.868 398.571V328.56Z" fill="#0C7AFF"/>
<path fill-rule="evenodd" clip-rule="evenodd" d="M495.137 305C490.367 305 486.5 308.867 486.5 313.637V392.242C486.5 392.253 486.5 392.264 486.5 392.275V487.42C486.5 490.6 489.078 493.178 492.258 493.178H713.23C716.41 493.178 718.988 490.6 718.988 487.42V341.97C718.988 338.79 716.41 336.212 713.23 336.212H580.5V313.637C580.5 308.867 576.633 305 571.863 305H495.137Z" fill="#3692FF"/>
</g>
</g>
<g clip-path="url(#clip3_47686_950)">
<path d="M264.868 328.194C264.868 323.424 268.735 319.557 273.505 319.557H390.985C395.755 319.557 399.622 323.424 399.622 328.194V398.206C399.622 401.386 397.044 403.964 393.864 403.964H270.626C267.446 403.964 264.868 401.386 264.868 398.206V328.194Z" fill="#0C7AFF"/>
<path fill-rule="evenodd" clip-rule="evenodd" d="M186.137 304.634C181.367 304.634 177.5 308.501 177.5 313.271V391.876C177.5 391.887 177.5 391.898 177.5 391.909V487.055C177.5 490.235 180.078 492.812 183.258 492.812H404.23C407.41 492.812 409.988 490.235 409.988 487.055V341.604C409.988 338.424 407.41 335.846 404.23 335.846H271.5V313.271C271.5 308.501 267.633 304.634 262.863 304.634H186.137Z" fill="#3692FF"/>
</g>
<path d="M76.5 127.711C76.5 118.62 83.8697 111.251 92.9607 111.251H191.039C200.13 111.251 207.5 118.62 207.5 127.711V230.546C207.5 237.174 202.127 242.546 195.5 242.546H88.5C81.8726 242.546 76.5 237.174 76.5 230.546V127.711Z" fill="#8698FF"/>
<path d="M124.807 143.469L127.895 130.549C128.073 129.806 129.08 129.688 129.424 130.37L135.398 142.227L142.429 202.586L131.839 203.828L124.807 143.469Z" fill="#E02D2C"/>
<path fill-rule="evenodd" clip-rule="evenodd" d="M134.587 140.752C133.161 141.782 131.46 142.474 129.59 142.694C128.001 142.881 126.453 142.708 125.027 142.24L127.827 130.557C128.005 129.814 129.012 129.696 129.355 130.377L134.587 140.752Z" fill="white"/>
<path fill-rule="evenodd" clip-rule="evenodd" d="M130.735 133.162C130.206 133.422 129.624 133.599 129.005 133.671C128.344 133.749 127.697 133.702 127.088 133.548L127.804 130.559C127.982 129.817 128.989 129.698 129.332 130.38L130.735 133.162Z" fill="#E02D2C"/>
<path d="M149.826 142.226L155.804 130.371C156.148 129.689 157.156 129.808 157.333 130.551L160.416 143.472L153.363 203.828L142.773 202.582L149.826 142.226Z" fill="#292424"/>
<path fill-rule="evenodd" clip-rule="evenodd" d="M159.96 141.861C158.341 142.527 156.534 142.802 154.671 142.582C153.075 142.394 151.602 141.862 150.319 141.069L155.724 130.361C156.067 129.679 157.074 129.798 157.252 130.541L159.96 141.861Z" fill="white"/>
<path fill-rule="evenodd" clip-rule="evenodd" d="M158.049 133.281C157.481 133.408 156.882 133.442 156.271 133.37C155.601 133.291 154.976 133.091 154.413 132.795L155.793 130.061C156.137 129.38 157.143 129.499 157.321 130.241L158.049 133.281Z" fill="#292424"/>
<path d="M119.024 166.747C119.024 164.032 121.225 161.83 123.94 161.83H161.222C163.938 161.83 166.139 164.032 166.139 166.747V208.55C166.139 215.177 160.766 220.55 154.139 220.55H131.024C124.396 220.55 119.024 215.177 119.024 208.55V166.747Z" fill="#5F76FF"/>
<rect x="119.024" y="178.255" width="47.1153" height="20.9418" fill="#FFD875"/>
<path d="M237.5 127.711C237.5 118.62 244.87 111.251 253.961 111.251H352.039C361.13 111.251 368.5 118.62 368.5 127.711V230.546C368.5 237.174 363.127 242.546 356.5 242.546H249.5C242.873 242.546 237.5 237.174 237.5 230.546V127.711Z" fill="#B9D9FF"/>
<path d="M272.479 138.547L328.037 134.944C330.72 134.77 332.991 136.899 332.991 139.588V211.31C332.991 213.88 330.908 215.963 328.338 215.963H272.479V138.547Z" fill="#F3F4F6"/>
<path d="M272.479 138.547L329.24 140.862C331.734 140.964 333.703 143.015 333.703 145.512V214.27C333.703 216.936 331.468 219.057 328.806 218.917L272.479 215.963V138.547Z" fill="#4E93EF"/>
<path d="M309.142 139.974L322.669 140.509V160.309L315.905 156.242L309.142 160.309V139.974Z" fill="white"/>
<path d="M393.5 127.083C393.5 118.339 400.588 111.251 409.332 111.251H508.668C517.412 111.251 524.5 118.339 524.5 127.083V230.546C524.5 237.174 519.127 242.546 512.5 242.546H405.5C398.873 242.546 393.5 237.174 393.5 230.546V127.083Z" fill="#FFB9E3"/>
<path d="M452.294 179.78C452.497 179.111 454.002 177.775 458.394 177.775C462.786 177.775 464.494 179.111 464.799 179.78" stroke="#FF46C0" stroke-width="3.84902"/>
<path d="M440.698 169.13C446.982 169.13 451.646 173.671 451.827 179.035V179.378C451.826 182.288 450.613 184.814 448.554 186.555L447.532 187.42V187.537C447.261 187.751 446.951 187.995 446.613 188.267C445.467 189.186 443.934 190.43 442.268 191.784C438.935 194.493 435.066 197.645 432.593 199.616C432.276 199.846 431.711 199.847 431.394 199.616C428.925 197.648 424.999 194.443 421.648 191.69C419.969 190.311 418.438 189.048 417.314 188.118C416.125 187.135 415.509 186.622 415.527 186.638C413.343 184.624 412.162 182.034 412.161 179.378V179.024C412.349 173.927 417.177 169.339 423.29 169.339C424.108 169.339 425.252 169.606 426.414 170.184C427.491 170.719 428.385 171.424 428.961 172.151C430.335 174.642 434.072 174.584 435.338 171.98C435.784 171.276 436.618 170.552 437.723 169.984C438.883 169.387 440.013 169.13 440.698 169.13Z" stroke="#FF68CC" stroke-width="5.77353"/>
<path d="M492.721 169.13C499.005 169.13 503.668 173.671 503.849 179.035V179.378C503.849 182.288 502.636 184.814 500.577 186.555L499.554 187.42V187.537C499.284 187.751 498.974 187.995 498.636 188.267C497.49 189.186 495.957 190.43 494.291 191.784C490.958 194.493 487.089 197.645 484.616 199.616C484.298 199.846 483.734 199.847 483.417 199.616C480.948 197.648 477.022 194.443 473.671 191.69C471.992 190.311 470.461 189.048 469.337 188.118C468.148 187.135 467.532 186.622 467.55 186.638C465.366 184.624 464.184 182.034 464.184 179.378V179.024C464.371 173.927 469.2 169.339 475.313 169.339C476.131 169.339 477.274 169.606 478.437 170.184C479.514 170.719 480.407 171.424 480.984 172.151C482.358 174.642 486.095 174.584 487.361 171.98C487.807 171.276 488.64 170.552 489.746 169.984C490.906 169.387 492.036 169.13 492.721 169.13Z" stroke="#FF68CC" stroke-width="5.77353"/>
<path d="M415.03 140.505C415.11 140.035 415.785 140.035 415.865 140.505L416.219 142.573C416.905 146.59 419.462 150.041 423.106 151.865C423.342 151.983 423.342 152.32 423.106 152.438C419.462 154.262 416.905 157.713 416.219 161.73L415.865 163.798C415.785 164.268 415.11 164.268 415.03 163.798L414.677 161.73C413.991 157.713 411.433 154.262 407.789 152.438C407.553 152.32 407.553 151.983 407.789 151.865C411.433 150.041 413.991 146.59 414.677 142.573L415.03 140.505Z" fill="white"/>
<path d="M431.301 136.196C431.351 135.897 431.78 135.897 431.83 136.196L432.054 137.526C432.479 140.049 434.075 142.22 436.356 143.379C436.503 143.454 436.503 143.664 436.356 143.739C434.075 144.897 432.479 147.069 432.054 149.592L431.83 150.922C431.78 151.221 431.351 151.221 431.301 150.922L431.077 149.592C430.652 147.069 429.056 144.897 426.775 143.739C426.628 143.664 426.628 143.454 426.775 143.379C429.056 142.22 430.652 140.049 431.077 137.526L431.301 136.196Z" fill="white"/>
<path d="M413.986 266.107C412.17 263.329 412.947 259.6 415.721 257.778C418.495 255.957 422.216 256.732 424.032 259.51L506.771 386.099C508.587 388.877 507.81 392.606 505.035 394.427C502.261 396.249 498.54 395.474 496.725 392.696L413.986 266.107Z" fill="#374151"/>
<path fill-rule="evenodd" clip-rule="evenodd" d="M429.506 267.884L419.46 274.482L413.986 266.107C412.17 263.329 412.947 259.6 415.722 257.779C418.496 255.957 422.217 256.732 424.033 259.51L429.506 267.884Z" fill="#3692FF"/>
<path d="M419.466 274.487L429.505 267.894C430.412 269.282 430.024 271.145 428.638 272.056L423.619 275.352C422.232 276.262 420.373 275.875 419.466 274.487Z" fill="#111827"/>
<defs>
<clipPath id="clip0_47686_950">
<path d="M0.5 0H588.5V432C588.5 438.627 583.127 444 576.5 444H12.5C5.87258 444 0.5 438.627 0.5 432V0Z" fill="white"/>
</clipPath>
<clipPath id="clip1_47686_950">
<rect width="293" height="162" fill="white" transform="translate(-158.5 282)"/>
</clipPath>
<clipPath id="clip2_47686_950">
<rect width="293" height="162" fill="white" transform="translate(458.5 282)"/>
</clipPath>
<clipPath id="clip3_47686_950">
<path d="M149.5 281.634H442.5V432C442.5 438.627 437.127 444 430.5 444H161.5C154.873 444 149.5 438.627 149.5 432V281.634Z" fill="white"/>
</clipPath>
</defs>
</svg>
