<svg width="344" height="259" viewBox="0 0 344 259" fill="none" xmlns="http://www.w3.org/2000/svg">
<g clip-path="url(#clip0_55828_4698)">
<rect width="344" height="259.755" rx="7.02041" fill="#F3F4F6"/>
<rect x="30.4219" y="94.1905" width="77.8095" height="77.8095" rx="12.8707" fill="#F9FAFB"/>
<rect x="-61.4287" y="94.1905" width="77.8095" height="77.8095" rx="12.8707" fill="#F9FAFB"/>
<rect x="235.769" y="94.1905" width="77.8095" height="77.8095" rx="12.8707" fill="#F9FAFB"/>
<rect x="327.619" y="94.1905" width="77.8095" height="77.8095" rx="12.8707" fill="#F9FAFB"/>
</g>
<rect x="122.272" y="83.605" width="99.4558" height="99.3905" rx="12.8707" fill="#E5E7EB"/>
<rect x="122.272" y="83.605" width="99.4558" height="99.3905" rx="12.8707" fill="url(#paint0_linear_55828_4698)"/>
<path d="M165.759 143.015C165.759 135.792 167.474 133.588 170.782 131.446C173.538 129.671 175.621 128.14 175.621 125.631C175.621 123.366 173.783 121.836 171.517 121.836C169.128 121.836 167.046 123.611 166.984 126.243H156.204C156.327 116.816 163.248 112.837 171.578 112.837C180.766 112.837 187.504 116.939 187.504 125.019C187.504 130.222 184.686 133.343 180.46 135.792C177.275 137.689 175.682 139.465 175.682 143.015V143.994H165.759V143.015ZM170.843 158.44C167.536 158.44 164.841 155.808 164.902 152.503C164.841 149.258 167.536 146.626 170.843 146.626C173.967 146.626 176.785 149.258 176.785 152.503C176.785 155.808 173.967 158.44 170.843 158.44Z" fill="#D1D5DB"/>
<path d="M253.935 204.454C255.604 206.122 258.309 206.121 259.977 204.452C261.644 202.783 261.644 200.078 259.975 198.411L256.955 201.432L253.935 204.454ZM231.673 176.167L228.653 179.189L253.935 204.454L256.955 201.432L259.975 198.411L234.693 173.145L231.673 176.167Z" fill="#3692FF"/>
<path d="M209.526 122.955C226.602 122.955 240.44 136.789 240.44 153.847C240.44 170.905 226.603 184.739 209.526 184.739C192.45 184.739 178.611 170.905 178.611 153.847C178.611 136.789 192.45 122.955 209.526 122.955Z" stroke="black" stroke-width="8.54391"/>
<defs>
<linearGradient id="paint0_linear_55828_4698" x1="138.068" y1="87.9899" x2="208.795" y2="190.055" gradientUnits="userSpaceOnUse">
<stop stop-color="#BFD5FF"/>
<stop offset="1" stop-color="#E5E7EB" stop-opacity="0"/>
</linearGradient>
<clipPath id="clip0_55828_4698">
<rect width="344" height="259" fill="white"/>
</clipPath>
</defs>
</svg>
